<svg xmlns="http://www.w3.org/2000/svg" width="950" height="500" viewBox="0 0 950 500">
  <g>
    <path d="M417.462,118.6a31.156,31.156,0,0,0,23.927-13.055q-4.433-3.057-8.866-6.152a19.6,19.6,0,0,1-15.061,8.1,18.156,18.156,0,0,1-18.693-18.365A19.321,19.321,0,0,1,417.462,70a18.1,18.1,0,0,1,15.061,6.965q4.434-3.582,8.866-7.2a29.021,29.021,0,0,0-23.927-10.872c-16.451.562-29.8,13.853-29.8,30.31C387.66,105.747,401.012,119.16,417.462,118.6Z" style="fill: #f1efec"/>
    <path d="M491.8,113.493c16.45-1.644,29.8-16.649,29.8-33.2,0-16.458-13.352-28.158-29.8-26.514-16.556,1.665-29.909,15.991-29.909,32.445C461.893,102.779,475.246,115.158,491.8,113.493Zm0-48.6c10.255-1.024,18.694,6.443,18.694,16.7,0,10.359-8.439,19.769-18.694,20.793A16.83,16.83,0,0,1,473,85.328C473,75.072,481.441,65.929,491.8,64.89Z" style="fill: #f1efec"/>
    <path d="M555.567,90.424q10.575-1.461,21.15-3.018,2.564,7.314,5.127,14.624,5.875-.874,11.75-1.772-9.987-28.332-19.975-56.729-7.478,1.09-14.955,2.135-9.987,31.251-19.974,62.405,5.874-.762,11.75-1.56Q553,98.469,555.567,90.424Zm10.574-33.1q3.418,9.767,6.837,19.523-6.837,1-13.673,1.953Q562.724,68.062,566.141,57.32Z" style="fill: #f1efec"/>
    <path d="M641.443,92.7c9.4-1.522,18.266-7.455,23.928-15.854l-8.866-5.179a23.032,23.032,0,0,1-15.062,9.923c-10.361,1.679-18.693-5.432-18.693-15.794,0-10.254,8.332-20.02,18.693-21.7a15.955,15.955,0,0,1,15.062,5.138l8.866-8.173c-5.555-6.574-14.527-9.6-23.928-8.074-16.45,2.668-29.8,18.119-29.8,34.568C611.641,84.109,624.993,95.364,641.443,92.7Z" style="fill: #f1efec"/>
    <path d="M701.256,58.648q12.924-2.064,25.85-4.059V78.943q5.554-.855,11.109-1.691V17.54q-5.555.836-11.109,1.691V43.479q-12.925,1.989-25.85,4.059V23.29q-5.556.888-11.11,1.783V84.785q5.555-.9,11.11-1.783Z" style="fill: #f1efec"/>
    <path d="M779.227,11.688q-5.554.742-11.109,1.514V72.914q5.554-.771,11.109-1.514Z" style="fill: #f1efec"/>
    <path d="M820.241,26.656q13.673,18.374,27.345,37.015,5.5-.49,11-.932V3.027q-5.554.445-11.109.942V44.026Q833.7,25.226,819.92,6.716q-5.394.591-10.788,1.221V67.649q5.555-.648,11.109-1.256Z" style="fill: #f1efec"/>
    <path d="M913.7,59.723a29.681,29.681,0,0,0,12.711-3.14V59.36q5.556-.072,11.11-.074V27.454q-11.109,0-22.219.287V38.85q5.554-.141,11.109-.213v4.7A19.142,19.142,0,0,1,913.7,48.613a18.072,18.072,0,0,1-18.8-18.1A19.6,19.6,0,0,1,913.7,11.12a17.92,17.92,0,0,1,14.955,7.3q4.487-3.411,8.972-6.777A29.2,29.2,0,0,0,913.7.011c-16.557.445-29.91,14.638-29.909,31.077C883.791,47.656,897.144,60.168,913.7,59.723Z" style="fill: #f1efec"/>
    <path d="M287.233,440.678l-3.111-.281a94.847,94.847,0,0,0-11.794-.951c-20.006-.8-37.464-10.06-53.019-27.948-6.9-8.361-14.445-18.421-19.182-29.665l-6.219-15.52c-7.046-16.573-13.858-33.5-21.256-50.305-1.065-2.224-1.837-4.509-2.9-6.734-6.16-15.228-13.146-31.507-30.5-43.23-1.058-.7-1.824-1.459-2.177-1.692.293-.06.992-1.118,1.811-1.591l3.625-3.182,2.339-2c67.607-51.65,116.255-121.41,152.415-219.454l.407-1c.987-2.643,3.366-8.929-3.69-13.594a14.709,14.709,0,0,0-17.189-.461,22.781,22.781,0,0,0-8.571,13.35c-7.47,24.725-19.874,47.709-32.105,70.047-3.612,6.232-7.165,12.757-10.717,19.282-21.484,41.322-53.427,77.757-103.014,117.488-3.158,2.475-7.022,4.485-11.352,7.2l-1.346.884.407-1a17.871,17.871,0,0,1,1.741-4.934l.694-2.584c8.355-23.379,16.53-47.637,24.3-70.9,11.591-35.945,24-72.362,37.822-107.846a111.2,111.2,0,0,0,3.822-12.685l.4-2.524c.114-.94.347-1.292.407-1,.633-2.877,3.42-10.161-5.514-15.054-9.875-5.006-15.48,1.938-17.872,5.173-1.812,1.591-2.565,3.882-3.379,5.88l-2.565,3.881c-15.167,21.411-32.566,42.363-62.512,49.7-16,3.876-28.361,7.62-39.372,12C21.014,120.447,4.848,141.452.333,171.679c-1.143,7.865,1.812,13.367,9.27,15.508,8.75,2.488,15.131-.646,17.038-7.751A27.625,27.625,0,0,0,27.79,173.1l.8-5.048c4.162-15.5,12.8-25.508,25.687-31.191,8.667-3.905,18.1-7.051,26.884-10.37,5.975-2.135,34.216-10.341,46.447-17.721a111.843,111.843,0,0,1-4.108,14.27c-4.288,13.391-8.93,26.549-13.511,40C102.742,184.358,95.2,205.74,88.3,227.3l-1.219,3c-4.576,14.976-8.637,26.489-27,26.267a11.875,11.875,0,0,0-6.327,1.9c-9.427,4.671-14.319,13.606-12.986,24.629.916,8.971,8.565,15.041,21.065,16.459l.646.173a17.868,17.868,0,0,0-.694,2.584c-6.023,19.85-11.985,39.994-18.3,59.9-5.79,19.5-11.639,38.7-17.488,57.906a10.51,10.51,0,0,0-1.513,3.057c-1.98,3.761-5.819,11.871,4.587,17.99,10.114,6.178,15.717-.766,18.7-4.121a18.466,18.466,0,0,1,2.686-3.295c2.165-1.358,3.151-4,3.959-7.525a3.986,3.986,0,0,1-.006-1.525l5.55-20.669c2.375-7.811,4.4-15.855,6.478-23.606a849.726,849.726,0,0,1,29.1-87.751c2.5-5.7,4.659-8.583,7.3-9.121,2.87-.891,7.452.616,14.037,4.462a45.557,45.557,0,0,1,19.616,21.333l13.613,30.8,6.627,14.521c10.215,32.105,24.981,58.092,44.718,80.012,23.744,26.6,48,34.772,85.64,29.228l3.81-.778c8.2-1.674,12.3-5.562,11.626-11.836C301.138,441.5,291.867,440.953,287.233,440.678Z" style="fill: #f1efec"/>
    <path d="M944.414,220.581c-13.751-35.962-56.058-54.8-92.459-47.679-22.331,4.252-47.17,27.637-56.266,41.4-10.964,16.584-19.361,29.288-33.075,47.35-13.481,17.709-29.58,40.531-43.5,50.089-6.435,4.366-9.987-4.067-13.7-8.8-4.126-5.263-4.778-6.961,1.472-13.732,27.571-29.437,42.608-54.485,41.561-82.051-1.507-40.292-20.042-54.826-54.329-47.828-30.464,6.217-56.211,67.736-67.87,88.212-3.726,4.489-7.462,11.589-12.694,21.03-17.649,31.687-31.842,47.4-40.926,49.258s-18.385-6.322-19.3-15.293c-1.231-15.012,7.3-53.995,9.653-66.381,6.836-36.806,2.2-38.606,16.089-40.831,17.817-3.941,15.113-5.222,33.349-7.111,9.264-.975,11.758-8.2,10.263-15.526-1.615-7.913-12.925-4.994-18.433-3.565-6.854,2.315-21.68,5.951-22.093,5.425-3.3-2.686,5.012-23.308,6.226-27.829,6.178-25.072-21.411-15.167-23.391-11.406-6.686,15.1-6.251,21.729-11.4,38.349-2.028,6.52-3.081,7.345-12.99,8.146-11.083,1.041-20.109,3.188-28.481,7.034-5.5,2.954-7.124,8.474-3.523,14.15,3.953,5.909,9.641,5.359,14.27,4.109a177.33,177.33,0,0,1,21.453-4.073c3.409-.4-15.782,51.5-18.751,84.353-10.9,18.718-29.451,48.812-35.023,49.949-7.034,1.435-8.212-14.808-8.642-19.91-2.465-15.066,7.439-62.266,10.783-77.3,1.214-4.521,2.248-9.922-4.623-12.183-5.287-1.974-10.563-.9-13.362,3.337-2.918,3.648-4.426,8.23-6.346,12.285-22.631,47.661-58.952,104.527-66.279,106.022-19.341,3.947-5.113-62.452,4.713-99.563,1.908-7.1-21.238-15.813-26.16.455-4.6,15.536-11.661,32.283-14.592,51.377-.484.672-.944,1.325-1.377,1.945-9.264,15.933-18.594,30.048-27.919,45.688-7.637,11.937-19.831,28.469-35.071,31.579s-32.422-25.742-20.6-48.607c17.411-32.858,34.115-66.183,50.526-99.449,23.4-46.9,24.091-64.443,28.924-118.546.9-10.561-.617-22.463-4.187-35.472-5.861-13.762-14.791-17.129-26.381-11.1-11.765,6.674-20.993,16.8-29.2,31.907-10.131,19.163-15.8,40.772-23.223,61.214-18.1,51.926-24.761,73.127-28.822,129.515-3.959,52.4,12.56,121.374,54.761,112.762,28.368-5.79,41.883-24.053,64.035-60.523,5.024,19.85,19.477,39.621,39.08,31.847,13.3-5.155,20.7-16.74,29.282-27.038,5.078-6.532,12.583-22.106,21.453-33.99l1.178,1.286c1.316,6.447,1.693,12.781,3.3,19.169,2.278,12.661,7.925,31.351,21.405,28.6,17.579-3.588,27.685-13.8,47.319-43.77a58.082,58.082,0,0,0,4.2,7.613c11.274,17.847,25.072,21.136,42.948,17.488,18.756-3.828,31.794-29.689,59.313-72.852.539-.835,1.033-1.625,1.526-2.415a21.937,21.937,0,0,0,2.015-2.582c12.362-18.7,38.056-78.283,60.328-82.828,9.085-1.854,13.409,8.864,14.929,22.29a63.644,63.644,0,0,1-5.2,34.336c-11.34,25.209-36.041,38.8-61.382,53.738-9.479,5.9-11.741,12.775-7.015,20.968,5.37,8.368,13.451,4.582,19.491,4.265,9.324-.682,17.237-2.3,26.059,3.534,10.879,6.939,10.837,11.22,2.416,17.823-6.256,5.246-11.753,9.725-16.663,14.085-15.239,3.11-32.063,5.933-55.861,10.485-46.129,8.8-59.724,12.494-118.515,23.576-29.133,5.335-61.2,9.743-89.324,18.535-18.1,5.526-36.125,17.446-45.21,34.258-5.244,8.7-13.557,42.756,7.835,38.391,11.137-2.273,7.046-13.343,9.068-21.388,2.895-9.748,11.249-18.17,19.677-23.247,15.156-9.5,34.336-9.755,51.506-13.869,33.229-7.7,66.878-13.344,99.934-20.4,47.649-10.335,63.714-12.393,94.718-19.025-11.669,16.118-15.132,30.562-19.03,53.337-4.133,23.128-2.01,70.926,29.933,64.407,54.509-11.124,75.957-76.555,72.566-133.558-.18-.879-.066-1.818-.186-2.4,28.953-6.214,49.354-9.462,90.968-17.954,30.185-6.16,66.608-7.183,92.817-25.353C946.124,297.77,957.87,256.6,944.414,220.581Zm-632.576-85.81c4.7-12.865,8.756-25.9,17.338-36.2,1.4-2.117,2.859-3.941,5.736-3.307,3.815.748,4.061,3.445,4.545,7.314a188.021,188.021,0,0,1-2.177,43.182c-10.107,55.179-20.664,70.765-45.461,119.784-3.432,7.111-6.13,22.315-15.992,20.359C262.442,283.137,300.575,164.849,311.838,134.771ZM666.084,476.722c-21.1,4.306-21.866-26.369-13.977-49.043,6.321-18.385,19.611-40.023,31.7-54.09l4.4-.9c6.68-1.668,12.835-2.924,18.7-4.121C706.676,401.89,697.734,470.263,666.084,476.722ZM924.778,269.463c-10.933,39.168-52.386,43.965-86.5,50.316-29.951,5.807-60.143,10.443-89.5,17.656-5.508,1.429-10.723,2.8-15.412,3.755a50.881,50.881,0,0,1,7-10.585c18.158-21.717,45.1-63.236,60.843-86.292,4.378-5.472,8.516-12.117,11.782-17.057,10.262-15.527,24.408-28.487,43.4-32.667C895.472,185.7,936.292,228.649,924.778,269.463Z" style="fill: #f1efec"/>
  </g>
</svg>
